<?xml version="1.0" encoding="UTF-8"?>
<svg version="1.1" viewBox="0 0 1024 992" width="256" height="248" xmlns="http://www.w3.org/2000/svg">
<path transform="translate(156,18)" d="m0 0h702l18 3 24 8 16 8 11 7 14 11 16 16 10 13 9 16 5 11 6 18 4 23 1 30v613l-1 21-2 14-6 21-12 25-10 16-11 12-16 16-18 12-15 8-21 7-19 4-10 1h-688l-24-4-16-5-21-10-16-12-15-14-9-10-10-14-8-14-7-16-6-21-2-10-1-14-1-5v-640l1-4 2-21 4-15 8-20 13-23 9-11 5-6h2l2-4 13-12 15-10 19-9 17-6 14-2z" fill="#35363A"/>
<path transform="translate(156,18)" d="m0 0h471l-3 10-6 11-11 14-11 12-11 10-16 12-20 12-27 14-35 18-94 47-19 10-29 15-23 14-19 14-10 9-8 7-19 19-8 10-10 14-8 13-8 16-5 11-9 27-5 21-2 13v45l4 25 5 19 7 19 8 16 8 14 12 16 12 13 7 7 11 9 16 11 21 11 15 6 20 5 12 2 11 1h16l21-3 26-8 24-11 25-12 50-25 18-7 14-3h16l9 2 12 7 8 9 5 10 2 8v15l-3 14-4 9-7 12-12 13-11 10-15 10-23 12-58 29-23 11-42 21-23 11-20 9-14 9-17 10-22 15-10 8-13 12-11 11-11 14-10 14-10 18-7 15-6 18-4 16-3 24v14l2 1h-86l-24-4-16-5-21-10-16-12-15-14-9-10-10-14-8-14-7-16-6-21-2-10-1-14-1-5v-640l1-4 2-21 4-15 8-20 13-23 9-11 5-6h2l2-4 13-12 15-10 19-9 17-6 14-2z" fill="#24AEF8"/>
<path transform="translate(676,217)" d="m0 0h39l22 3 20 5 19 7 23 12 12 8 13 10 10 9 14 14 13 17 9 14 9 16 6 15 2 1 17-9 23-13 23-12 30-16 9-5h2l1 406v96l-1 21-2 14-6 21-12 25-10 16-11 12-16 16-18 12-15 8-21 7-19 4-10 1h-438l2-1 2-6 10-16 8-10 11-12 14-14 16-12 15-9 16-9 33-17 26-13 23-11 42-21 23-11 48-24 16-9 21-14 13-10 14-12 7-8h2l2-4 11-14 11-17 9-16 10-24 6-19 5-23 2-14v-35l-3-23-6-25-8-22-8-17-11-18-13-17-14-15-11-9-12-9-15-9-17-8-19-6-17-3-12-1h-14l-18 2-17 4-17 6-28 13-39 20-26 13-19 8-16 3h-9l-11-2-10-5-8-7-6-10-3-9-1-5v-20l3-14 7-14 10-15 9-10 10-10 16-12 23-13 56-28 50-24 21-9 20-6z" fill="#24AEF8"/>
<path transform="translate(676,217)" d="m0 0h39l22 3 20 5 19 7 23 12 12 8 13 10 10 9 14 14 13 17 9 14 9 16 6 15 7 25 4 23 2 18v33l-3 24-6 25-8 21-11 23-7 11-13 19-16 20-3 2v-44l-3-23-6-25-8-22-8-17-11-18-13-17-14-15-11-9-12-9-15-9-17-8-19-6-17-3-12-1h-14l-18 2-17 4-17 6-28 13-39 20-26 13-19 8-16 3h-9l-11-2-10-5-8-7-6-10-3-9-1-5v-20l3-14 7-14 10-15 9-10 10-10 16-12 23-13 56-28 50-24 21-9 20-6z" fill="#E0F1FC"/>
<path transform="translate(207,389)" d="m0 0h3l1 47 4 25 5 19 7 19 8 16 8 14 12 16 12 13 7 7 11 9 16 11 21 11 15 6 20 5 12 2 11 1h16l21-3 26-8 24-11 25-12 50-25 18-7 14-3h16l9 2 12 7 8 9 5 10 2 8v15l-3 14-4 9-7 12-12 13-11 10-15 10-23 12-58 29-23 11-42 21-23 11-7 3-14 3-16 2h-31l-30-3-23-5-18-6-18-8-18-10-14-10-13-12-14-14-12-16-10-16-8-16-6-14-6-18-5-25-2-22v-21l3-27 5-22 8-22 9-19 9-15 13-19 12-14z" fill="#E0F1FC"/>
</svg>
